<svg xmlns="http://www.w3.org/2000/svg" width="100" height="43" viewBox="0 0 100 43">
    <g fill="none" fill-rule="evenodd">
        <path fill="#403F41" fill-opacity=".8" d="M86.466.156l-.882 14.291.505-.03c3.786-.327 6.762-2.831 6.905-6.873A7.162 7.162 0 0 0 86.466.156z"/>
        <path fill="#BCD537" fill-opacity=".8" d="M92.495 7.044a7.162 7.162 0 0 1 7.38 6.53l-14.291.873.031-.512c.333-3.782 2.84-6.752 6.88-6.891zm-6.911 7.403zm0 0z"/>
        <path fill="#808184" d="M85.584 31.907h-3.51v-.938a6.88 6.88 0 0 1-3.48.938c-1.917 0-3.56-.686-4.932-2.058-1.372-1.372-2.058-3.006-2.058-4.902v-3.51c0-1.916.686-3.56 2.058-4.932 1.371-1.372 3.015-2.058 4.932-2.058 1.23 0 2.39.323 3.48.969v-.969h3.51v17.46zm-3.51-6.96v-3.51c0-.948-.343-1.765-1.03-2.45-.685-.687-1.502-1.03-2.45-1.03-.968 0-1.796.343-2.482 1.03-.685.685-1.028 1.502-1.028 2.45v3.51c0 .948.343 1.765 1.028 2.451a3.381 3.381 0 0 0 2.482 1.029c.948 0 1.765-.343 2.45-1.029.687-.686 1.03-1.503 1.03-2.45zM69.806 31.907h-3.51v-.938a6.879 6.879 0 0 1-3.48.938c-1.916 0-3.56-.686-4.932-2.058-1.371-1.372-2.057-3.006-2.057-4.902v-3.51c0-1.916.686-3.56 2.057-4.932 1.372-1.372 3.016-2.058 4.932-2.058 1.231 0 2.391.323 3.48.969v-.969h3.51v17.46zm-3.51-6.96v-3.51c0-.948-.343-1.765-1.029-2.45-.685-.687-1.502-1.03-2.45-1.03-.969 0-1.796.343-2.482 1.03-.686.685-1.029 1.502-1.029 2.45v3.51c0 .948.343 1.765 1.03 2.451a3.381 3.381 0 0 0 2.48 1.029c.949 0 1.766-.343 2.451-1.029.686-.686 1.03-1.503 1.03-2.45zM56.148 14.477l-11.105 27.93h-3.964l4.357-10.954-7.11-16.976h3.963l5.084 12.104 4.78-12.104zM36.954 35.417c0 1.916-.686 3.56-2.058 4.932-1.371 1.372-3.015 2.058-4.932 2.058-1.916 0-3.56-.686-4.932-2.058-1.372-1.372-2.058-3.016-2.058-4.932h3.48c.02.948.368 1.765 1.044 2.45.676.687 1.498 1.03 2.466 1.03.948 0 1.765-.343 2.451-1.03.686-.685 1.029-1.502 1.029-2.45 0-1.997-1.16-3.167-3.48-3.51-.464-.04-1.14-.152-2.027-.333-1.473-.403-2.668-1.226-3.586-2.466a6.826 6.826 0 0 1-1.377-4.16v-3.51c0-1.917.686-3.561 2.058-4.933 1.372-1.372 3.016-2.058 4.932-2.058 1.23 0 2.39.323 3.48.969v-.939h3.51v10.47c0 2.078-.797 3.823-2.39 5.235 1.593 1.392 2.39 3.137 2.39 5.235zm-3.51-10.47v-3.51c0-.948-.343-1.765-1.029-2.45-.686-.687-1.503-1.03-2.45-1.03-.969 0-1.796.343-2.482 1.03-.686.685-1.029 1.502-1.029 2.45v3.51c0 .948.343 1.765 1.029 2.451a3.381 3.381 0 0 0 2.481 1.029c.948 0 1.765-.343 2.451-1.029.686-.686 1.029-1.503 1.029-2.45zM20.765 31.907h-3.48v-17.46h3.48zM11.521 14.447L7.626 26.672 3.731 14.447H.125l5.777 17.46h3.48l5.776-17.46z"/>
    </g>
</svg>
